<?xml version="1.0" encoding="UTF-8"?>
<svg version="1.1" xmlns="http://www.w3.org/2000/svg" width="256" height="260">
<path d="M0 0 C84.48 0 168.96 0 256 0 C256 85.8 256 171.6 256 260 C171.52 260 87.04 260 0 260 C0 174.2 0 88.4 0 0 Z " fill="#FBFBFB" transform="translate(0,0)"/>
<path d="M0 0 C0.928125 0.7115625 0.928125 0.7115625 1.875 1.4375 C9.86517536 6.99588286 16.48472563 8.48206175 26.0859375 7.125 C31.53441243 5.95597856 35.39793177 3.33658564 39.75 0 C42.78219597 -0.80264011 44.67933609 0.5204769 47.46875 1.69140625 C54.77913 3.95809875 62.71474464 2.6406555 69.875 0.4375 C70.69252303 2.01824564 71.50381997 3.60221223 72.3125 5.1875 C72.76496094 6.06921875 73.21742188 6.9509375 73.68359375 7.859375 C75.55231967 11.90317535 76.00234593 15.27364719 76.0078125 19.71875 C76.00910156 20.72550781 76.01039063 21.73226562 76.01171875 22.76953125 C76.00785156 23.81496094 76.00398438 24.86039063 76 25.9375 C76.00386719 26.98292969 76.00773437 28.02835938 76.01171875 29.10546875 C76.01042969 30.11222656 76.00914062 31.11898437 76.0078125 32.15625 C76.00668457 33.07341797 76.00555664 33.99058594 76.00439453 34.93554688 C75.875 37.4375 75.875 37.4375 75.36621094 39.32763672 C74.65103191 42.39949413 74.82180673 45.32729115 74.8828125 48.4765625 C74.90034771 49.8762946 74.91725414 51.27603469 74.93359375 52.67578125 C74.96434497 54.86107037 74.99964593 57.04594839 75.04638672 59.23095703 C75.21823367 67.72483037 75.1388654 75.43726153 71.875 83.4375 C71.44960937 84.49839844 71.02421875 85.55929688 70.5859375 86.65234375 C62.82740425 102.46432526 51.49373343 113.5995877 34.78515625 119.5625 C21.76826412 123.47630381 8.32441221 121.91753988 -3.75 115.8125 C-18.75062885 107.05853072 -29.3250383 92.95594781 -34.0078125 76.296875 C-35.62950498 67.75443854 -36.47576087 57.88554688 -34.125 49.4375 C-33.90415266 45.60947946 -34.06789676 42.63736134 -35.125 38.9375 C-38.19843671 27.52819536 -36.50920844 14.40056613 -31.5625 3.75 C-30.125 1.4375 -30.125 1.4375 -28.125 0.4375 C-27.02091797 0.89189453 -27.02091797 0.89189453 -25.89453125 1.35546875 C-19.63609408 3.80058454 -11.72741797 3.41984313 -5.5625 0.8125 C-2.125 -0.5625 -2.125 -0.5625 0 0 Z " fill="#020202" transform="translate(108.125,97.5625)"/>
<path d="M0 0 C1.73405756 2.60108634 2.83038972 4.90598917 4.0625 7.75 C7.97146814 15.54520971 13.79250661 19.43972354 21.875 22.375 C27.54010122 24.07889934 33.10193247 24.76779262 39 25 C38.855625 25.57105469 38.71125 26.14210938 38.5625 26.73046875 C36.49206689 35.77423559 36.12343788 44.61075479 38.1875 53.6875 C39.22965645 58.65391453 38.4119677 61.76261202 36.75390625 66.4765625 C34.14469246 75.2099931 36.30344358 83.91027166 40 92 C42.04154442 95.25832526 44.27732881 98.27732881 47 101 C47.05720401 102.72247636 47.1097607 104.44524962 47.13720703 106.16845703 C47.36154599 115.7322666 49.33237862 123.37608546 55.6015625 130.9296875 C58.83483373 134.00972313 61.90520195 135.37261785 66.125 136.75 C70.4111605 138.29327715 71.86614069 139.76124372 73.8125 143.875 C74.18117188 144.7515625 74.54984375 145.628125 74.9296875 146.53125 C77.43224259 152.30356686 81.60996112 155.83628152 87 159 C90.3133541 160.10445137 92.82695195 160.13304048 96.3125 160.125 C97.97732422 160.12886719 97.97732422 160.12886719 99.67578125 160.1328125 C103.00911633 160.08551705 103.00911633 160.08551705 106.2578125 159.35546875 C107.61519531 159.17951172 107.61519531 159.17951172 109 159 C111.5625 161.1875 111.5625 161.1875 114 164 C115.65 165.32 117.3 166.64 119 168 C79.73 168 40.46 168 0 168 C0 112.56 0 57.12 0 0 Z " fill="#010101" transform="translate(0,92)"/>
<path d="M0 0 C0.33 0 0.66 0 1 0 C1 55.11 1 110.22 1 167 C-38.27 167 -77.54 167 -118 167 C-116.68 166.01 -115.36 165.02 -114 164 C-112.87271639 162.91904312 -111.74765651 161.8357617 -110.625 160.75 C-107.38659822 157.98201869 -107.38659822 157.98201869 -104.3125 158.125 C-103.219375 158.41375 -102.12625 158.7025 -101 159 C-93.56244492 159.62067291 -87.07372388 159.7197896 -81 155 C-76.75780669 151.03074192 -73.29171408 147.08401373 -71.0625 141.6875 C-69.54841089 138.299142 -68.18062577 137.31676351 -64.75 135.9375 C-63.57630859 135.49470703 -63.57630859 135.49470703 -62.37890625 135.04296875 C-55.98423217 132.23939243 -51.47995168 127.29008649 -48.73828125 120.94921875 C-46.7359091 115.66253249 -45.94954648 111.13236038 -45.75 105.5 C-45.40119304 99.93177253 -44.45046178 97.6161501 -40.56640625 93.76953125 C-34.39429735 86.79704913 -34.578328 77.45271134 -34.6640625 68.69921875 C-34.83100757 65.06340952 -34.83100757 65.06340952 -36.0859375 62.08203125 C-37.1528451 58.48463766 -36.82530509 56.05641657 -36.30615234 52.39550781 C-35.79482673 48.39460913 -35.81574856 44.40321609 -35.8125 40.375 C-35.80025391 39.56804687 -35.78800781 38.76109375 -35.77539062 37.9296875 C-35.76313155 32.89529437 -36.38177988 28.7715107 -38 24 C-37.36835938 23.98582031 -36.73671875 23.97164062 -36.0859375 23.95703125 C-25.35852075 23.38510846 -14.4068889 20.5902264 -6.55078125 12.90234375 C-3.3640862 8.99322413 -1.58139216 4.74417648 0 0 Z " fill="#010101" transform="translate(255,93)"/>
<path d="M0 0 C4.20305855 3.20233032 8.24079315 7.23158631 10.625 12 C14.20742287 12.20448084 14.20742287 12.20448084 17.5234375 11.01171875 C22.11445437 8.8015452 27.19391412 9.50462412 31.875 11.125 C35.70584349 13.73693874 38.52661815 16.80323629 40.625 21 C40.72851168 22.89483873 40.80837286 24.79100605 40.875 26.6875 C41.30935051 32.72497208 42.75123732 35.44832885 46.625 40 C48.96920859 47.03262578 47.99137832 53.9698835 45.02734375 60.66796875 C42.13097312 65.48449595 37.9698626 68.61713231 33.1875 71.4375 C26.96692987 72.802991 22.43387138 72.77282283 16.875 69.4375 C16.17890625 68.96183594 15.4828125 68.48617187 14.765625 67.99609375 C11.90685569 66.66582701 10.5764468 66.96838145 7.625 68 C5.44468333 69.56204284 5.44468333 69.56204284 3.5 71.5 C-1.45820518 76.20740102 -5.6115779 76.40003692 -12.29296875 76.3515625 C-18.02763606 75.69741794 -21.73948324 72.77570391 -25.5625 68.625 C-27.24849808 66.74967062 -27.24849808 66.74967062 -29.625 67 C-32.0013746 67.86413622 -33.97962197 68.85702452 -36.1875 70.0625 C-41.10161847 72.57948751 -45.11407778 73.00143485 -50.41015625 71.375 C-56.67914615 68.66930879 -60.95433418 63.85363522 -64.54296875 58.140625 C-66.40218979 53.35727696 -65.99212817 48.01567891 -65.375 43 C-64.28976009 40.79438651 -63.01769433 39.04315994 -61.53515625 37.08984375 C-60.00862914 34.34003902 -59.99605806 32.12798416 -59.875 29 C-59.51947978 21.38033695 -56.63896765 17.5873916 -51.75 12 C-47.00820144 9.1900453 -42.767563 9.25430352 -37.375 10 C-36.52035156 10.35964844 -35.66570312 10.71929687 -34.78515625 11.08984375 C-32.47027166 12.1533067 -32.47027166 12.1533067 -30.2421875 11.86328125 C-27.80815483 10.73792305 -26.96495448 9.41803803 -25.5 7.1875 C-18.93069558 -1.84732114 -10.59689177 -3.13981979 0 0 Z " fill="#010102" transform="translate(137.375,15)"/>
<path d="M0 0 C38.94 0 77.88 0 118 0 C116.35 1.32 114.7 2.64 113 4 C111.74353676 5.03386149 110.49275833 6.07470424 109.25 7.125 C108.65703125 7.62257813 108.0640625 8.12015625 107.453125 8.6328125 C105.87728556 9.9579498 105.87728556 9.9579498 105 12 C104.38125 11.835 103.7625 11.67 103.125 11.5 C94.61038792 10.13766207 87.05102357 10.4198789 79.8671875 15.51171875 C72.61987677 21.46200155 69.65273585 28.13745067 67 37 C65.58460937 37.05607422 65.58460937 37.05607422 64.140625 37.11328125 C45.30230772 38.07789388 29.7962183 43.49731826 16 57 C9.21429773 64.82152598 2.76045671 73.60230259 1 84 C0.67 84 0.34 84 0 84 C0 56.28 0 28.56 0 0 Z " fill="#010101" transform="translate(0,0)"/>
<path d="M0 0 C38.94 0 77.88 0 118 0 C118 27.39 118 54.78 118 83 C117.67 83 117.34 83 117 83 C116.85304688 82.46632813 116.70609375 81.93265625 116.5546875 81.3828125 C111.64584746 65.07643583 100.05658497 52.83996878 85.41796875 44.53515625 C74.88195553 39.33823219 62.69896297 36.56245014 51 36 C50.85304687 35.45472656 50.70609375 34.90945312 50.5546875 34.34765625 C47.95447279 25.60555507 44.12747485 18.42160719 35.93359375 13.9296875 C28.76426194 10.48261483 21.71655594 10.00863073 14 12 C13.360625 11.113125 12.72125 10.22625 12.0625 9.3125 C8.77922159 5.31752829 4.57645297 3.25332978 0 1 C0 0.67 0 0.34 0 0 Z " fill="#010101" transform="translate(138,0)"/>
<path d="M0 0 C-0.66 6.6 -1.32 13.2 -2 20 C-3.8975 20.226875 -5.795 20.45375 -7.75 20.6875 C-17.94340935 22.27363442 -27.36853965 25.8703343 -35 33 C-35.33 33.66 -35.66 34.32 -36 35 C-35.10796875 34.72285156 -34.2159375 34.44570312 -33.296875 34.16015625 C-32.12640625 33.79792969 -30.9559375 33.43570313 -29.75 33.0625 C-28.00976562 32.52302734 -28.00976562 32.52302734 -26.234375 31.97265625 C-25.16703125 31.65167969 -24.0996875 31.33070312 -23 31 C-22.35160156 30.79632813 -21.70320313 30.59265625 -21.03515625 30.3828125 C-17.91587158 29.79607565 -14.85766915 29.8284305 -11.6875 29.8125 C-9.77517578 29.79123047 -9.77517578 29.79123047 -7.82421875 29.76953125 C-3.89185806 30.00651724 -0.68907502 30.62518943 3 32 C5 34.9375 5 34.9375 6 38 C5 41 5 41 2.734375 42.46484375 C-9.9242309 48.71130242 -23.75648598 54.44488369 -37.99609375 50.08203125 C-43.22431729 47.68155417 -47.03065211 44.94891315 -50 40 C-51.26347302 34.14207965 -48.92957672 29.86066184 -46.01171875 24.90234375 C-36.99471715 11.89334921 -24.40724686 3.5320912 -8.9375 0.375 C-6 0 -6 0 0 0 Z " fill="#060606" transform="translate(62,51)"/>
<path d="M0 0 C15.79842267 0.63193691 29.55623501 6.935812 40.4375 18.4375 C45.94750412 24.85853818 49.8659182 30.23403362 49.37109375 38.9609375 C48.75433405 42.34986973 47.61303438 43.7693609 45 46 C34.14729099 51.7789696 24.46576449 52.13725207 12.5703125 49.19921875 C5.69828723 46.8910002 -0.63635458 43.43914598 -7 40 C-2.63414144 31.24962536 -2.63414144 31.24962536 -0.40234375 30.37109375 C9.89434985 28.78054758 20.19192346 29.60934959 30 33 C31.393468 33.40408123 32.78904056 33.80104699 34.1875 34.1875 C35.115625 34.455625 36.04375 34.72375 37 35 C26.53384782 25.21642296 15.027378 21.75342225 1 20 C0.67 13.4 0.34 6.8 0 0 Z " fill="#060607" transform="translate(195,51)"/>
<path d="M0 0 C3.26098774 0.24155465 4.23269254 1.22715224 6.625 3.5625 C10.03249972 6.50534067 13.03856027 6.76819205 17.453125 6.57421875 C21.80689528 5.59261717 24.80032262 3.00304916 28 0 C29.32 0.66 30.64 1.32 32 2 C32.44124432 5.0151695 32.51143706 7.17424225 30.875 9.81640625 C28.37070256 12.83591072 26.34081581 14.81654853 22.8359375 16.703125 C19.61096824 18.81077782 19.61096824 18.81077782 19.265625 22.8203125 C19.23128168 24.25480674 19.22690076 25.69028065 19.25 27.125 C19.20929715 34.79070285 19.20929715 34.79070285 17 37 C14.06546739 36.63318342 13.13562754 36.13562754 11 34 C11.06365947 31.58094021 11.19989903 29.1635539 11.375 26.75 C11.62773129 21.50432786 11.62773129 21.50432786 9.40234375 16.88671875 C7.32793217 15.44820156 5.20210408 14.23106557 3 13 C0.80947107 11.08965501 -0.38972409 9.49333045 -2 7 C-1.80392157 1.80392157 -1.80392157 1.80392157 0 0 Z " fill="#F4F4F4" transform="translate(113,166)"/>
<path d="M0 0 C3.25 0.4375 3.25 0.4375 6.125 2.75 C9.37939171 7.1696739 8.9724905 12.20915475 8.25 17.4375 C6.71696367 21.5985986 5.94096643 22.97685571 2.25 25.4375 C-0.6875 25.4375 -0.6875 25.4375 -3.75 24.4375 C-7.30318557 20.88431443 -8.05104735 17.80520814 -8.25 12.9375 C-8.05663344 7.2602577 -6.32381954 1.0060622 0 0 Z " fill="#F7F7F7" transform="translate(158.75,112.5625)"/>
<path d="M0 0 C3.4375 1.25 3.4375 1.25 5.875 3.6875 C7.92334116 8.35771784 8.26969161 12.22421537 7.4375 17.25 C5.70210898 20.48939656 4.01428866 22.67321134 1.4375 25.25 C-0.9375 25.625 -0.9375 25.625 -3.5625 25.25 C-6.35285429 23.0022146 -7.42160005 21.67269984 -8.5625 18.25 C-9.70909866 6.89867322 -9.70909866 6.89867322 -6.5 2.4375 C-3.5625 0.25 -3.5625 0.25 0 0 Z " fill="#F6F6F6" transform="translate(98.5625,112.75)"/>
</svg>
