<?xml version="1.0" encoding="UTF-8"?>
<svg version="1.1" xmlns="http://www.w3.org/2000/svg" width="256" height="260">
<path d="M0 0 C84.48 0 168.96 0 256 0 C256 85.8 256 171.6 256 260 C171.52 260 87.04 260 0 260 C0 174.2 0 88.4 0 0 Z " fill="#040404" transform="translate(0,0)"/>
<path d="M0 0 C84.48 0 168.96 0 256 0 C256 85.8 256 171.6 256 260 C171.52 260 87.04 260 0 260 C0 174.2 0 88.4 0 0 Z M107.1875 11.375 C105.5078125 12.90625 105.5078125 12.90625 104 14 C101.5625 13.875 101.5625 13.875 99 13 C90.20939787 12.42356707 83.80401973 14.70706124 76.89453125 20.19921875 C71.35717602 25.46256053 68.80247421 30.40877847 68 38 C66.63681641 37.91298828 66.63681641 37.91298828 65.24609375 37.82421875 C46.52926344 37.15233253 30.78205124 44.76925906 16.95703125 57.12890625 C10.13588237 63.53168558 2.93732926 73.39237506 2 83 C1.92523438 83.64453125 1.85046875 84.2890625 1.7734375 84.953125 C1.33206441 91.59695147 3.27371879 96.5371994 7 102 C16.06410138 112.32519375 27.04787568 113.79219454 40 115 C39.505 115.99 39.01 116.98 38.5 118 C35.50575378 125.92345344 36.47613966 135.87282026 37.625 144.125 C38 148 38 148 37.0390625 150.8125 C34.47995273 158.66300217 35.20392488 168.27750682 38 176 C39.80750432 179.41073589 41.62981441 182.79106357 44.54760742 185.36547852 C47.05549223 188.18785014 46.64289258 192.00097586 46.875 195.625 C47.49579372 202.7868571 48.57530591 208.14578936 53 214 C53.556875 214.886875 54.11375 215.77375 54.6875 216.6875 C58.42860233 220.42860233 63.79821564 224.52090088 69.140625 225.3203125 C71 226 71 226 72.421875 228.4765625 C72.86015625 229.51554688 73.2984375 230.55453125 73.75 231.625 C77.32582145 239.16200712 81.5962141 243.97187982 89.5 246.9375 C95.03142526 248.48667924 99.94445594 248.50487047 105.5625 247.125 C109.47275591 246.98280888 109.88757121 247.35213704 112.6875 249.8125 C113.22761719 250.35519531 113.76773438 250.89789063 114.32421875 251.45703125 C119.12338721 255.87584603 124.18712613 255.41138798 130.4453125 255.3203125 C136.36094144 254.78725583 140.93993604 252.97722922 145.234375 248.85546875 C148.92528085 246.37922542 151.94177096 246.75863072 156.1875 247.0625 C164.70457437 247.34597847 170.53856623 246.05506286 177.015625 240.16796875 C180.0499535 236.93602642 182.1354868 233.90843086 183.8125 229.8125 C185.85737804 225.2927052 189.02154399 224.26480354 193.3984375 222.328125 C199.80074874 219.05967782 204.60014706 213.45373097 207.28125 206.8203125 C208.42454452 202.3341242 208.66897403 197.76604353 209.07617188 193.16381836 C209.64353688 187.86587179 210.85211064 184.8660441 214.46875 180.859375 C219.96254119 174.18834284 220.55679191 165.67287029 220.34765625 157.37109375 C219.93786281 153.39747873 218.97894205 149.96597899 217.4609375 146.28125 C216.81773273 143.09793148 217.94021208 141.04454975 219 138 C219.72483108 129.44322795 219.3401789 121.93292489 216 114 C216.75023437 114.03480469 217.50046875 114.06960937 218.2734375 114.10546875 C229.25823509 114.39599866 238.58299478 112.46928898 247 105 C252.79798671 97.87432306 254.55006339 92.07765852 254.46484375 82.90234375 C252.9860964 70.48832192 244.45589809 60.21731581 235.02734375 52.59765625 C227.44990819 47.0641948 219.81214213 43.24137398 211 40 C210.29617187 39.73316406 209.59234375 39.46632812 208.8671875 39.19140625 C202.23090338 37.1085898 194.88132469 37.83871895 188 38 C187.95875 36.845 187.9175 35.69 187.875 34.5 C187.05713072 27.99160364 182.80680129 23.44716836 178.0625 19.1875 C170.86062262 14.04330187 164.80225723 13.04404259 156 14 C153.71273637 14.92504631 153.71273637 14.92504631 152 16 C151.74605469 15.40316406 151.49210938 14.80632813 151.23046875 14.19140625 C148.51804868 9.36071527 142.27047068 5.41481266 137.16796875 3.4765625 C125.44103718 0.89875051 115.91714419 3.3572152 107.1875 11.375 Z " fill="#FDFDFD" transform="translate(0,0)"/>
<path d="M0 0 C2.85227249 1.72637546 5.61043869 3.57442607 8.375 5.4375 C16.53205737 8.15651912 25.55296161 7.05107 33.2890625 3.60546875 C35.45721526 2.47980617 35.45721526 2.47980617 37.39453125 0.71875 C39.375 -0.5625 39.375 -0.5625 41.34765625 -0.19921875 C42.38212891 0.27064453 42.38212891 0.27064453 43.4375 0.75 C50.96112379 3.63033122 57.88112884 3.11388256 65.375 0.4375 C67.89575195 0.6105957 67.89575195 0.6105957 70.375 1.4375 C75.10080078 7.91062701 74.90126057 16.09737154 74.6875 23.75 C74.67783203 24.80767578 74.66816406 25.86535156 74.65820312 26.95507812 C74.54693352 34.62300552 74.54693352 34.62300552 73.85742188 37.8894043 C73.29442989 40.86306186 73.33071817 43.56906307 73.41796875 46.59375 C73.44987305 48.37652344 73.44987305 48.37652344 73.48242188 50.1953125 C73.53514492 52.65915023 73.59993607 55.12276403 73.67773438 57.5859375 C73.93140292 75.06088205 67.2618833 88.90156691 55.375 101.4375 C42.81844677 112.659073 30.11886127 116.71486137 13.59375 115.94140625 C-0.06533059 114.86756377 -10.84247327 107.59803379 -20.078125 97.84765625 C-29.3748988 86.67431144 -34.7799959 72.76550807 -34.75 58.1875 C-34.7495166 57.52073242 -34.7490332 56.85396484 -34.74853516 56.16699219 C-34.72355496 52.61980438 -34.53338246 49.19258472 -34 45.6875 C-33.5464909 42.33898757 -33.86250153 39.6791886 -34.5625 36.375 C-36.9047561 24.84140789 -36.73903837 13.22550796 -31.625 2.4375 C-30.965 1.7775 -30.305 1.1175 -29.625 0.4375 C-27.55859375 0.6796875 -27.55859375 0.6796875 -25.0625 1.3125 C-18.44031886 2.77033268 -12.73968196 3.49424801 -6.375 0.8125 C-2.625 -0.5625 -2.625 -0.5625 0 0 Z " fill="#FCFCFC" transform="translate(108.625,96.5625)"/>
<path d="M0 0 C4.76137264 2.70532536 7.71106349 7.11805535 10.75 11.5625 C14.87973628 10.99510132 14.87973628 10.99510132 18.75 9.5625 C25.17577222 8.81655629 30.13125308 8.9002368 35.3125 12.98046875 C38.95210644 16.98601388 40.05583025 20.12551071 40.125 25.5 C40.45637114 31.3710321 41.66188727 33.47438727 45.75 37.5625 C47.65323708 41.95458557 47.3981139 47.29019703 46.1015625 51.8359375 C43.56020085 58.20020215 39.63366887 63.66833744 33.36328125 66.7265625 C28.83646199 68.17460334 24.43797257 68.26300165 19.75 67.5625 C17.65625 66.40625 17.65625 66.40625 15.875 65 C13.0888365 62.27741079 13.0888365 62.27741079 10.3125 62.69140625 C7.37784278 63.68901076 5.854727 64.9289573 3.625 67.0625 C-1.37423051 71.80885114 -5.51379289 71.90864253 -12.23828125 71.84375 C-17.89467443 71.31552651 -21.00062861 68.9011122 -24.875 64.75 C-27.00329067 62.30839661 -27.00329067 62.30839661 -29.625 62.5 C-32.44027883 63.54350504 -32.44027883 63.54350504 -35.4375 65.625 C-39.91543958 68.27282514 -44.18133158 68.46960863 -49.25 67.5625 C-55.17012755 65.19444898 -59.67915652 60.77667283 -63.25 55.5625 C-65.070308 50.10157601 -65.5541159 42.82871755 -63.390625 37.41015625 C-62.18051886 35.61691926 -60.77873281 34.09123281 -59.25 32.5625 C-59.1965932 30.54194285 -59.15748453 28.52100179 -59.125 26.5 C-58.71122992 20.42024927 -57.44798072 17.29113664 -53.07421875 13.0859375 C-48.86795657 9.5732132 -46.18784017 8.0627273 -40.51953125 8.2578125 C-36.28446618 8.82637545 -32.27920343 10.17539718 -28.25 11.5625 C-27.95480469 10.9540625 -27.65960938 10.345625 -27.35546875 9.71875 C-21.85202855 -1.01587541 -11.10550433 -4.67940668 0 0 Z " fill="#FCFCFC" transform="translate(137.25,18.4375)"/>
<path d="M0 0 C-0.23009766 0.99580078 -0.23009766 0.99580078 -0.46484375 2.01171875 C-1.10773021 5.60155922 -1.35033991 9.17795419 -1.5625 12.8125 C-1.62727539 13.85180664 -1.62727539 13.85180664 -1.69335938 14.91210938 C-1.79861453 16.60788686 -1.89972863 18.30392052 -2 20 C-3.08796875 20.07476562 -4.1759375 20.14953125 -5.296875 20.2265625 C-18.40818104 21.32191471 -28.29389442 24.73508104 -38 34 C-37.03578125 33.72285156 -36.0715625 33.44570312 -35.078125 33.16015625 C-33.18320312 32.61681641 -33.18320312 32.61681641 -31.25 32.0625 C-29.99703125 31.70285156 -28.7440625 31.34320313 -27.453125 30.97265625 C-26.31359375 30.65167969 -25.1740625 30.33070312 -24 30 C-23.3603833 29.81767822 -22.7207666 29.63535645 -22.06176758 29.44750977 C-19.83702351 28.96462571 -17.83387323 28.87058235 -15.55859375 28.8671875 C-14.72779297 28.86589844 -13.89699219 28.86460938 -13.04101562 28.86328125 C-11.75227539 28.86908203 -11.75227539 28.86908203 -10.4375 28.875 C-9.14295898 28.86919922 -9.14295898 28.86919922 -7.82226562 28.86328125 C-6.99275391 28.86457031 -6.16324219 28.86585937 -5.30859375 28.8671875 C-4.55376709 28.86831543 -3.79894043 28.86944336 -3.02124023 28.87060547 C-1 29 -1 29 2 30 C6 35.37142857 6 35.37142857 6 38 C-8.05915271 44.84212099 -21.83425367 51.35456002 -37.8515625 47.2734375 C-42.37890988 45.41101701 -46.10418775 43.01677183 -49 39 C-49.91045469 32.85443085 -48.20684387 27.98536934 -44.59375 23.09765625 C-42.80941947 20.97245125 -40.94194735 18.98232811 -39 17 C-38.26652344 16.24203125 -37.53304687 15.4840625 -36.77734375 14.703125 C-26.67782082 4.91561986 -14.08357008 -0.57483959 0 0 Z " fill="#F9F9F9" transform="translate(63,52)"/>
<path d="M0 0 C7.17816936 0.45431452 13.35085832 1.24303881 20 4 C20.80179688 4.32742187 21.60359375 4.65484375 22.4296875 4.9921875 C32.92899615 9.73486586 41.78728482 18.25965572 47.875 28 C49.24092865 31.64247641 49.49154814 34.13783607 49 38 C45.77718624 43.77420798 40.0274237 45.99085877 34 48 C18.89194383 49.07914687 7.06472342 45.85454314 -6 38 C-4.87548273 35.0280615 -3.77706209 32.66559313 -2 30 C10.06523005 26.28260479 26.14052966 28.90884331 37.453125 34.1328125 C38.21882813 34.56207031 38.21882813 34.56207031 39 35 C31.33375282 26.31158653 21.37116701 22.21344033 10.1875 20.375 C7.485625 19.92125 4.78375 19.4675 2 19 C1.34 12.73 0.68 6.46 0 0 Z " fill="#FAFAFA" transform="translate(194,52)"/>
<path d="M0 0 C1.67542976 0.28604898 3.34385343 0.61781233 5 1 C5.33 1.99 5.66 2.98 6 4 C10.04019647 6.32617373 14.44107239 6.75685322 19 6 C21.65683189 4.50251293 23.84652751 3.15347249 26 1 C28.5 0.875 28.5 0.875 31 1 C32 2 32 2 32.125 5.0625 C31.30177919 10.66272041 26.26187514 13.7938187 22 17 C21.34 17.33 20.68 17.66 20 18 C19.73993649 20.6686062 19.57860091 23.26275714 19.5 25.9375 C19.26980752 33.73019248 19.26980752 33.73019248 17 36 C12.44444444 35.44444444 12.44444444 35.44444444 11 34 C10.98106239 32.17567648 10.96469046 30.35127696 10.96362305 28.52685547 C11.05360905 21.7605417 11.05360905 21.7605417 8.296875 15.81640625 C6.21557949 14.34951944 6.21557949 14.34951944 4.015625 13.15234375 C0.92786303 11.38705347 -0.46198948 9.14289106 -2 6 C-1.71428571 1.71428571 -1.71428571 1.71428571 0 0 Z " fill="#0D0C0D" transform="translate(113,161)"/>
<path d="M0 0 C3.4375 1.1875 3.4375 1.1875 5.875 3.75 C7.73485003 7.84167006 8.17569521 10.77590484 7.4375 15.1875 C5.87314712 19.2101217 5.05026337 20.77899109 1.4375 23.1875 C-2 23.3125 -2 23.3125 -5.5625 22.1875 C-8.28372619 19.15021072 -9.4260226 15.86700755 -9.75390625 11.83203125 C-9.52694989 7.72618445 -8.78008476 5.50747759 -6.4375 2.0625 C-3.5625 0.1875 -3.5625 0.1875 0 0 Z " fill="#0D0C0C" transform="translate(159.5625,110.8125)"/>
<path d="M0 0 C3.24239592 2.67850098 4.68048984 4.2829802 5.44921875 8.4140625 C5.6376704 12.71595882 5.1807337 15.58792717 3.4375 19.5625 C1 22 1 22 -2.5 23.125 C-6 23 -6 23 -8.375 21.25 C-11.56697083 16.83034809 -11.51904532 12.25309656 -11 7 C-8.61146554 0.9200941 -6.65628375 -0.91360757 0 0 Z " fill="#0A0909" transform="translate(101,111)"/>
<path d="M0 0 C0.33 0 0.66 0 1 0 C1 3.63 1 7.26 1 11 C1.9075 10.938125 2.815 10.87625 3.75 10.8125 C15.96259753 10.88621789 29.36505516 16.36505516 38 25 C38 25.66 38 26.32 38 27 C37.31035156 26.80664062 36.62070313 26.61328125 35.91015625 26.4140625 C34.97042969 26.15367188 34.03070313 25.89328125 33.0625 25.625 C32.14597656 25.36976562 31.22945312 25.11453125 30.28515625 24.8515625 C29.20105469 24.57054688 28.11695313 24.28953125 27 24 C26.00214478 23.73098877 26.00214478 23.73098877 24.98413086 23.45654297 C19.07278748 21.97985362 13.50891078 21.76010937 7.4375 21.875 C4.323125 21.91625 1.20875 21.9575 -2 22 C-1.34 14.74 -0.68 7.48 0 0 Z " fill="#7A7A7B" transform="translate(195,60)"/>
<path d="M0 0 C3 6.625 3 6.625 3 10 C2.4423999 9.97905273 1.8847998 9.95810547 1.31030273 9.93652344 C-10.92746932 9.53928297 -21.34644686 10.13617213 -33 14 C-34.32956379 14.34806467 -35.66127009 14.68904806 -37 15 C-27.88741247 2.66621874 -14.60011161 -0.67732477 0 0 Z " fill="#777676" transform="translate(61,72)"/>
<path d="M0 0 C-2.34914492 2.34914492 -3.95679446 2.73140357 -7.125 3.625 C-8.03507812 3.88539062 -8.94515625 4.14578125 -9.8828125 4.4140625 C-10.58148437 4.60742188 -11.28015625 4.80078125 -12 5 C-7.85328399 -0.39073081 -6.73524099 -1.31776454 0 0 Z " fill="#676568" transform="translate(36,82)"/>
</svg>
